<?xml version="1.0" standalone="no"?>
<!DOCTYPE svg PUBLIC "-//W3C//DTD SVG 20010904//EN"
 "http://www.w3.org/TR/2001/REC-SVG-20010904/DTD/svg10.dtd">
<svg version="1.0" xmlns="http://www.w3.org/2000/svg"
 width="1280.000000pt" height="1031.000000pt" viewBox="0 0 1280.000000 1031.000000"
 preserveAspectRatio="xMidYMid meet">

<g transform="translate(0.000000,1031.000000) scale(0.100000,-0.100000)"
fill="#000000" stroke="none">
<path d="M6205 9578 c-203 -22 -539 -80 -620 -107 -16 -5 -57 -17 -90 -26 -68
-19 -71 -20 -215 -70 -58 -20 -129 -47 -158 -61 -29 -13 -55 -24 -59 -24 -8 0
-285 -139 -363 -183 -62 -34 -191 -119 -211 -140 -8 -7 -52 -40 -99 -72 -47
-32 -116 -88 -155 -125 -38 -36 -88 -79 -110 -96 -49 -35 -40 -28 -164 -142
-139 -130 -156 -165 -155 -327 0 -105 3 -125 23 -164 27 -53 98 -130 160 -176
96 -70 270 -86 400 -38 68 26 85 38 215 164 288 278 539 446 874 583 62 25
131 55 153 67 23 11 85 29 138 40 458 92 572 104 846 93 328 -14 321 -14 390
29 63 39 250 102 393 133 73 15 100 16 250 6 92 -6 185 -17 207 -23 66 -18
246 -109 310 -155 127 -92 145 -107 145 -115 0 -4 40 -50 89 -102 71 -74 94
-106 112 -153 12 -32 32 -77 45 -99 46 -80 54 -120 59 -303 l4 -175 39 -46
c21 -25 61 -79 89 -119 75 -107 136 -181 150 -182 7 0 24 17 37 38 46 73 160
166 251 206 150 65 262 79 400 50 42 -9 79 -13 82 -11 10 11 -191 343 -227
377 -3 3 -17 21 -30 40 -136 196 -436 501 -679 689 -143 111 -372 250 -577
352 -122 60 -228 109 -236 109 -7 0 -18 4 -23 9 -10 8 -171 68 -210 78 -11 3
-29 8 -40 13 -11 4 -47 15 -80 24 -33 8 -105 27 -160 41 -55 15 -125 30 -155
35 -30 5 -95 16 -145 25 -49 9 -137 21 -195 27 -135 14 -601 18 -705 6z"/>
<path d="M7363 8727 c-23 -7 -45 -15 -49 -19 -4 -5 -14 -8 -23 -8 -47 0 -240
-94 -291 -142 -14 -13 -55 -50 -90 -82 -71 -65 -131 -155 -172 -256 -44 -110
-52 -158 -52 -295 1 -209 43 -328 174 -494 138 -175 247 -247 466 -307 82 -22
120 -27 220 -27 115 -1 149 4 274 40 275 79 508 328 575 616 23 100 14 292
-18 397 -47 151 -97 229 -225 351 -98 94 -197 152 -289 169 -29 5 -76 22 -105
37 -51 27 -60 28 -203 30 -91 1 -166 -3 -192 -10z"/>
<path d="M3606 8007 c3 -10 9 -15 12 -12 3 3 0 11 -7 18 -10 9 -11 8 -5 -6z"/>
<path d="M9365 7590 c-114 -29 -221 -99 -272 -177 -84 -130 -96 -262 -39 -413
10 -25 21 -61 26 -80 4 -19 20 -81 34 -136 24 -94 43 -214 51 -324 9 -112 5
-441 -5 -459 -5 -11 -10 -35 -11 -53 0 -35 -30 -205 -48 -273 -5 -22 -14 -58
-20 -80 -29 -123 -154 -420 -226 -535 -12 -19 -39 -64 -60 -100 -22 -36 -71
-108 -110 -160 -94 -125 -88 -112 -86 -200 2 -89 -19 -227 -50 -321 -79 -239
-275 -462 -514 -582 -162 -81 -301 -112 -493 -111 -219 2 -392 48 -573 154
-42 25 -50 27 -105 18 -32 -5 -149 -11 -259 -13 -205 -4 -223 -8 -192 -43 24
-28 62 -104 81 -161 23 -72 25 -258 3 -321 -38 -111 -68 -158 -150 -243 -77
-79 -81 -77 196 -77 228 0 457 16 567 39 25 5 99 20 165 32 66 12 146 30 179
40 32 11 65 19 72 19 17 0 233 71 324 106 165 64 403 178 522 250 26 16 80 49
120 73 40 24 75 47 78 50 3 4 25 19 50 33 25 15 54 35 65 45 12 10 36 29 55
43 140 98 452 398 575 550 83 102 196 263 271 382 67 108 198 367 234 463 13
33 29 74 36 90 25 58 92 265 114 355 30 128 70 355 70 407 0 23 5 45 10 48 13
8 14 638 1 663 -5 9 -16 71 -25 138 -22 171 -67 361 -120 514 -15 41 -31 89
-36 105 -30 89 -158 198 -279 235 -64 20 -168 25 -226 10z"/>
<path d="M3938 7132 c-16 -9 -28 -21 -28 -26 0 -5 8 -2 18 7 10 10 24 17 30
17 7 0 12 5 12 10 0 13 0 13 -32 -8z"/>
<path d="M3848 7077 c-15 -12 -37 -30 -50 -39 -13 -9 -18 -17 -12 -18 6 0 27
12 47 28 19 15 43 32 53 39 15 9 15 12 4 12 -8 0 -27 -10 -42 -22z"/>
<path d="M3683 6937 c-122 -131 -238 -328 -221 -377 2 -6 12 15 23 47 35 106
152 275 251 361 26 24 40 42 32 42 -9 0 -47 -33 -85 -73z"/>
<path d="M3443 6495 c0 -22 2 -30 4 -17 2 12 2 30 0 40 -3 9 -5 -1 -4 -23z"/>
<path d="M3423 6385 c0 -22 2 -30 4 -17 2 12 2 30 0 40 -3 9 -5 -1 -4 -23z"/>
<path d="M3423 6110 c0 -25 2 -35 4 -22 2 12 2 32 0 45 -2 12 -4 2 -4 -23z"/>
<path d="M3442 6010 c0 -14 2 -19 5 -12 2 6 2 18 0 25 -3 6 -5 1 -5 -13z"/>
<path d="M5311 5994 c0 -11 3 -14 6 -6 3 7 2 16 -1 19 -3 4 -6 -2 -5 -13z"/>
<path d="M5270 5918 c-14 -22 -33 -53 -42 -67 -10 -14 -22 -35 -27 -46 -17
-38 -124 -146 -180 -183 -115 -75 -158 -99 -231 -129 -31 -12 -46 -22 -34 -22
11 -1 24 2 28 6 3 4 16 8 27 10 50 8 228 117 300 185 44 41 169 217 169 237 0
5 5 11 11 13 6 2 10 11 8 21 -3 12 -11 5 -29 -25z"/>
<path d="M3486 5867 c3 -10 9 -15 12 -12 3 3 0 11 -7 18 -10 9 -11 8 -5 -6z"/>
<path d="M4138 5503 c7 -3 16 -2 19 1 4 3 -2 6 -13 5 -11 0 -14 -3 -6 -6z"/>
<path d="M4301 5456 c2 -2 29 -6 59 -9 36 -4 48 -3 35 3 -19 8 -103 14 -94 6z"/>
<path d="M4634 5452 c5 -8 66 -4 66 4 0 2 -16 4 -36 4 -19 0 -33 -4 -30 -8z"/>
<path d="M4573 5443 c9 -2 23 -2 30 0 6 3 -1 5 -18 5 -16 0 -22 -2 -12 -5z"/>
<path d="M7340 5414 c-30 -9 -68 -18 -83 -21 -26 -5 -154 -62 -183 -81 -103
-67 -136 -93 -186 -145 -97 -101 -162 -208 -198 -322 -7 -22 -17 -51 -22 -65
-16 -42 -22 -269 -8 -335 6 -33 15 -77 20 -98 17 -84 120 -257 209 -350 50
-53 136 -117 229 -169 37 -21 163 -63 250 -83 126 -30 341 -16 480 31 71 24
167 71 181 88 8 9 19 16 25 16 51 0 306 286 306 343 0 7 6 21 14 32 28 41 58
179 62 284 6 212 -34 356 -147 522 -46 66 -170 186 -232 223 -180 108 -315
146 -522 145 -90 0 -160 -6 -195 -15z"/>
<path d="M4130 5120 c0 -5 5 -10 11 -10 5 0 7 5 4 10 -3 6 -8 10 -11 10 -2 0
-4 -4 -4 -10z"/>
<path d="M4205 4990 c3 -5 8 -10 11 -10 2 0 4 5 4 10 0 6 -5 10 -11 10 -5 0
-7 -4 -4 -10z"/>
<path d="M3960 3983 c0 -6 8 -17 18 -24 16 -13 16 -13 2 6 -8 11 -16 22 -17
24 -2 2 -3 0 -3 -6z"/>
<path d="M4370 3616 c0 -2 7 -6 15 -10 8 -3 15 -1 15 4 0 6 -7 10 -15 10 -8 0
-15 -2 -15 -4z"/>
<path d="M4685 3410 c3 -5 14 -10 23 -10 15 0 15 2 2 10 -20 13 -33 13 -25 0z"/>
<path d="M6314 3340 c-3 -38 -10 -70 -13 -70 -4 0 -12 -12 -18 -27 -29 -69
-121 -175 -183 -212 -45 -27 -22 -28 24 -1 56 31 130 119 176 209 18 36 40
171 27 171 -3 0 -9 -31 -13 -70z"/>
<path d="M4908 3293 c7 -3 16 -2 19 1 4 3 -2 6 -13 5 -11 0 -14 -3 -6 -6z"/>
<path d="M5044 3231 c3 -5 16 -11 28 -14 22 -6 22 -5 4 8 -22 17 -40 20 -32 6z"/>
<path d="M5228 3153 c7 -3 16 -2 19 1 4 3 -2 6 -13 5 -11 0 -14 -3 -6 -6z"/>
<path d="M5268 3138 c6 -6 18 -8 28 -6 14 3 12 5 -9 10 -19 3 -25 2 -19 -4z"/>
<path d="M5344 3113 c3 -4 17 -8 29 -10 17 -2 19 -1 7 7 -17 11 -47 14 -36 3z"/>
<path d="M5498 3063 c7 -3 16 -2 19 1 4 3 -2 6 -13 5 -11 0 -14 -3 -6 -6z"/>
<path d="M5578 3043 c7 -3 16 -2 19 1 4 3 -2 6 -13 5 -11 0 -14 -3 -6 -6z"/>
<path d="M5768 2993 c6 -2 18 -2 25 0 6 3 1 5 -13 5 -14 0 -19 -2 -12 -5z"/>
<path d="M6018 2993 c7 -3 16 -2 19 1 4 3 -2 6 -13 5 -11 0 -14 -3 -6 -6z"/>
<path d="M7271 2531 c-19 -15 -30 -31 -24 -34 10 -7 82 42 83 56 0 15 -26 5
-59 -22z"/>
<path d="M4958 2459 l-23 -5 23 -6 c21 -6 22 -10 22 -117 0 -104 -1 -111 -20
-111 -11 0 -20 -7 -20 -15 0 -13 13 -15 73 -13 77 3 96 21 27 26 l-40 3 0 55
0 54 40 0 c33 0 40 -3 40 -20 0 -11 5 -20 10 -20 6 0 10 20 10 45 0 25 -4 45
-10 45 -5 0 -10 -7 -10 -15 0 -11 -11 -15 -41 -15 l-40 0 3 48 3 47 80 0 c80
0 80 0 83 -27 5 -40 22 -34 22 7 0 21 -5 35 -12 36 -51 4 -201 3 -220 -2z"/>
<path d="M5245 2459 c-3 -4 2 -9 10 -13 12 -4 15 -25 15 -101 0 -93 1 -98 29
-126 24 -24 38 -29 76 -29 38 0 52 5 76 29 28 29 29 32 29 130 0 89 2 101 18
101 12 0 13 3 4 8 -7 5 -27 7 -45 6 -55 -3 -63 -6 -32 -13 l30 -6 3 -91 c3
-87 2 -92 -24 -117 -35 -36 -85 -36 -120 -2 -23 23 -25 30 -22 117 l3 93 30 6
c32 7 22 11 -38 14 -21 1 -40 -2 -42 -6z"/>
<path d="M5570 2460 c-25 -6 -25 -6 -2 -12 21 -6 22 -11 22 -116 0 -88 -3
-111 -15 -116 -34 -13 -13 -27 35 -24 54 3 73 21 28 26 l-28 3 0 105 c0 57 1
104 3 104 2 0 39 -54 82 -120 44 -66 85 -120 92 -120 10 0 13 30 13 125 0 102
3 127 15 131 27 11 7 20 -37 18 -60 -3 -67 -5 -33 -13 l30 -6 3 -103 c1 -56
-1 -102 -5 -102 -4 0 -39 49 -78 109 -38 61 -76 112 -85 114 -8 2 -26 1 -40
-3z"/>
<path d="M5910 2460 c-25 -6 -25 -6 -2 -12 21 -6 22 -10 22 -117 0 -92 -3
-111 -15 -111 -8 0 -15 -7 -15 -16 0 -14 11 -16 83 -12 91 5 128 21 153 69 31
61 7 161 -46 189 -24 13 -144 20 -180 10z m159 -25 c29 -15 61 -68 61 -103 0
-35 -21 -80 -45 -96 -15 -10 -46 -16 -80 -16 l-55 0 0 115 0 115 45 0 c26 0
59 -7 74 -15z"/>
<path d="M6233 2458 c-12 -4 -3 -7 25 -7 23 -1 42 -5 42 -11 0 -21 -92 -215
-105 -223 -31 -17 -14 -28 38 -25 55 3 72 21 25 26 -27 3 -28 4 -13 33 15 28
18 29 88 29 71 0 73 -1 84 -29 10 -27 9 -30 -11 -33 -37 -5 -22 -23 23 -26 48
-4 81 15 44 24 -21 6 -30 24 -91 179 -9 22 -21 47 -29 54 -13 16 -90 22 -120
9z m131 -79 c15 -34 25 -64 22 -66 -2 -2 -28 -3 -58 -1 l-54 3 24 63 c13 34
27 62 32 62 4 0 19 -28 34 -61z"/>
<path d="M6591 2457 c-45 -23 -66 -63 -66 -128 0 -58 2 -62 42 -100 36 -34 49
-39 88 -39 48 0 92 17 114 44 20 24 -7 21 -39 -4 -40 -31 -102 -27 -145 11
-32 29 -35 35 -35 89 0 50 4 62 29 89 25 26 36 31 76 31 39 0 52 -5 75 -30 15
-16 31 -30 34 -30 3 0 6 16 6 35 0 19 -4 35 -10 35 -5 0 -10 -4 -10 -9 0 -6
-12 -3 -27 5 -34 17 -100 18 -132 1z"/>
<path d="M6910 2459 l-45 -6 48 -1 47 -2 0 -114 0 -115 -42 -3 c-79 -6 -40
-23 52 -23 53 0 90 4 90 10 0 6 -18 11 -40 13 l-41 3 3 112 3 112 45 6 c25 3
41 7 35 9 -20 6 -111 5 -155 -1z"/>
<path d="M7223 2451 c-82 -51 -85 -178 -7 -240 39 -31 113 -29 153 4 61 52 68
163 13 218 -40 40 -111 48 -159 18z m138 -29 c27 -24 33 -37 37 -83 4 -52 2
-57 -31 -92 -28 -31 -41 -37 -74 -37 -52 0 -89 29 -104 81 -36 117 85 209 172
131z"/>
<path d="M7644 2459 c-3 -5 6 -9 21 -9 14 0 28 -6 31 -13 2 -7 3 -58 2 -113
l-3 -99 -78 118 -78 117 -42 -1 c-34 -1 -37 -2 -17 -8 25 -7 25 -9 28 -118 3
-106 2 -111 -19 -116 -37 -10 -10 -27 42 -27 36 0 49 4 47 13 -3 6 -17 13 -31
15 l-27 3 0 105 c0 57 2 104 5 104 3 0 31 -40 63 -88 76 -115 104 -152 114
-152 4 0 8 56 8 125 0 121 1 126 23 135 23 9 19 11 -46 15 -20 1 -40 -2 -43
-6z"/>
<path d="M3682 2049 c-72 -7 -131 -41 -169 -98 -58 -86 3 -225 157 -357 89
-77 168 -166 187 -211 32 -77 6 -150 -63 -179 -73 -30 -191 -8 -238 45 -21 24
-66 29 -66 7 0 -7 18 -30 40 -49 54 -50 132 -71 226 -63 175 14 287 101 270
209 -13 81 -46 129 -186 268 -146 145 -180 195 -188 280 -4 43 -1 51 26 79 24
24 39 30 72 30 55 0 107 -23 122 -54 9 -20 19 -26 45 -26 l33 0 0 65 0 65 -35
0 c-24 0 -35 -5 -35 -15 0 -17 -14 -19 -39 -6 -25 14 -86 17 -159 10z"/>
<path d="M10365 2048 c-120 -15 -219 -87 -252 -182 -26 -73 -26 -502 -1 -556
53 -113 169 -164 378 -164 167 -1 253 24 321 93 29 28 51 61 58 86 6 24 11
130 11 261 0 260 -8 302 -72 366 -67 67 -133 91 -269 98 -64 3 -142 2 -174 -2z
m261 -73 c80 -47 84 -64 84 -386 0 -271 0 -277 -23 -310 -12 -19 -43 -45 -67
-59 -62 -34 -191 -36 -262 -3 -87 40 -88 45 -88 371 0 313 3 330 61 375 48 36
94 47 177 42 56 -3 83 -10 118 -30z"/>
<path d="M2000 2041 c-101 -31 -177 -98 -205 -180 -22 -65 -22 -495 1 -549 47
-113 173 -167 389 -166 185 0 294 43 352 141 l28 48 3 228 c3 181 0 238 -12
280 -27 94 -86 151 -193 188 -46 15 -82 19 -197 18 -78 0 -152 -4 -166 -8z
m266 -46 c53 -16 96 -53 113 -98 7 -18 11 -134 11 -305 0 -323 -2 -329 -85
-372 -68 -35 -199 -36 -262 -3 -85 46 -83 37 -83 370 0 281 1 297 21 333 44
79 166 111 285 75z"/>
<path d="M2610 2027 c0 -20 6 -26 27 -29 20 -2 29 -11 35 -33 11 -39 15 -691
5 -728 -5 -20 -16 -29 -37 -34 -24 -4 -30 -11 -30 -30 l0 -25 278 4 c255 3
282 5 336 25 152 57 214 171 172 317 -22 74 -88 148 -154 172 -61 23 -59 21
-30 44 53 41 73 134 44 203 -17 41 -83 99 -133 117 -26 9 -115 14 -275 17
l-238 5 0 -25z m392 -37 c20 -6 48 -24 62 -41 23 -27 26 -40 26 -105 0 -67 -3
-76 -29 -106 -29 -32 -31 -33 -126 -37 l-97 -3 4 125 c5 153 16 177 81 177 23
0 59 -5 79 -10z m128 -362 c85 -36 116 -108 108 -248 -4 -84 -24 -115 -94
-150 -41 -21 -67 -25 -154 -28 -150 -6 -144 -16 -148 245 l-3 206 128 -5 c81
-3 141 -11 163 -20z"/>
<path d="M4070 2026 c0 -18 7 -25 28 -29 50 -10 52 -28 52 -412 0 -384 0 -385
-56 -385 -19 0 -24 -5 -24 -25 l0 -25 378 2 377 3 0 50 c0 48 -1 50 -30 53
-24 2 -33 -3 -47 -28 l-17 -30 -199 0 c-168 0 -202 2 -212 16 -10 11 -15 74
-18 225 l-5 209 64 0 c67 0 109 -18 109 -46 0 -9 11 -14 35 -14 l35 0 0 80 0
80 -34 0 c-25 0 -35 -5 -39 -20 -7 -27 -35 -36 -107 -32 l-62 4 7 131 c4 73
11 140 16 150 8 14 24 17 99 17 91 0 120 -11 120 -46 0 -9 11 -14 36 -14 l35
0 -3 53 -3 52 -267 3 -268 2 0 -24z"/>
<path d="M4897 2043 c-4 -3 -7 -15 -7 -25 0 -13 8 -18 30 -18 54 0 55 -9 54
-409 -2 -339 -3 -366 -20 -378 -10 -7 -29 -13 -42 -13 -19 0 -23 -5 -20 -22 3
-23 6 -23 161 -26 l158 -3 -3 23 c-2 15 -13 24 -35 30 -17 5 -34 16 -37 26 -2
9 -6 105 -8 212 l-3 195 35 -3 c46 -5 108 -41 151 -89 19 -21 67 -93 106 -159
109 -184 167 -224 336 -232 l97 -5 0 27 c0 24 -3 26 -47 26 -103 1 -153 45
-239 210 -55 108 -93 153 -166 200 l-58 38 49 12 c106 25 161 87 161 178 -1
102 -62 171 -177 198 -61 14 -463 20 -476 7z m385 -53 c20 -6 51 -24 68 -41
28 -28 30 -36 30 -100 0 -118 -36 -149 -175 -149 l-85 0 0 63 c1 113 17 210
36 224 21 16 75 17 126 3z"/>
<path d="M5690 2028 c0 -16 10 -28 32 -38 30 -14 37 -27 81 -155 80 -231 184
-556 198 -620 l14 -60 60 0 59 0 49 160 c100 327 149 482 180 575 30 88 35 96
65 105 24 7 32 15 32 32 0 23 -2 23 -110 23 l-110 0 0 -25 c0 -21 5 -25 30
-25 18 0 33 -6 37 -15 12 -33 -116 -488 -179 -635 l-20 -45 -43 145 c-74 249
-145 505 -145 522 0 18 20 28 57 28 20 0 24 4 21 23 -3 22 -6 22 -155 25
l-153 3 0 -23z"/>
<path d="M6620 1978 c-33 -115 -117 -387 -178 -573 -55 -169 -75 -205 -113
-205 -12 0 -19 -7 -19 -20 0 -16 7 -20 33 -21 17 0 67 -1 110 -2 73 -2 77 -1
77 20 0 17 -8 24 -35 29 -40 7 -39 5 -23 73 l11 51 173 0 172 0 16 -52 c8 -28
13 -55 10 -59 -3 -5 -20 -11 -39 -15 -25 -4 -35 -11 -35 -25 0 -19 27 -21 280
-21 36 0 40 2 40 22 0 13 -7 20 -19 20 -10 0 -28 8 -38 18 -34 29 -187 460
-254 710 l-32 122 -58 0 -58 0 -21 -72z m74 -164 c9 -34 36 -126 60 -205 24
-79 47 -163 51 -186 l7 -43 -155 0 -155 0 24 83 c53 180 138 427 145 420 4 -4
15 -36 23 -69z"/>
<path d="M7160 1995 l0 -55 33 0 c27 0 35 5 44 30 12 31 12 31 80 28 61 -3 69
-6 80 -28 16 -31 19 -694 3 -734 -7 -20 -19 -27 -50 -32 -34 -6 -41 -10 -38
-28 3 -20 9 -21 176 -24 l172 -2 0 25 c0 21 -5 25 -27 25 -48 0 -57 13 -64 97
-11 117 -10 540 1 607 12 72 24 87 83 93 64 8 95 -2 103 -32 5 -21 12 -25 40
-25 l34 0 0 55 0 55 -335 0 -335 0 0 -55z"/>
<path d="M8069 2035 c-82 -26 -141 -73 -174 -140 l-30 -60 -3 -230 c-3 -215
-2 -235 18 -288 37 -99 126 -149 297 -170 234 -27 424 50 463 187 17 60 8 486
-11 540 -17 50 -79 109 -149 144 -52 25 -64 27 -210 29 -114 2 -167 -1 -201
-12z m308 -48 c52 -27 82 -67 93 -124 7 -34 10 -148 8 -308 -3 -290 -3 -289
-94 -335 -41 -21 -63 -25 -134 -25 -94 1 -150 22 -189 71 -20 26 -21 37 -21
321 0 315 1 323 53 371 14 13 44 30 68 38 56 18 173 13 216 -9z"/>
<path d="M8718 2043 c-11 -21 -1 -38 24 -41 53 -6 53 -5 53 -409 0 -403 1
-392 -52 -393 -18 0 -23 -6 -23 -25 l0 -26 158 3 c149 3 157 4 157 23 0 14 -8
21 -27 23 -14 2 -32 10 -38 17 -8 10 -14 85 -18 221 l-5 206 34 -7 c19 -4 50
-16 70 -26 41 -20 132 -115 156 -163 9 -17 38 -69 66 -114 78 -131 144 -170
300 -179 l97 -6 0 27 c0 24 -3 26 -45 26 -97 0 -153 50 -234 207 -61 119 -97
161 -174 207 l-58 34 53 11 c109 24 162 84 162 181 -1 88 -38 140 -129 182
-47 21 -66 23 -286 26 -130 2 -239 0 -241 -5z m393 -54 c63 -19 90 -57 96
-131 5 -74 -7 -102 -56 -135 -29 -19 -47 -23 -119 -23 l-84 0 3 123 c5 151 17
177 81 177 22 0 58 -5 79 -11z"/>
<path d="M9710 2025 c0 -20 5 -25 24 -25 50 0 51 -6 51 -400 0 -395 -1 -400
-51 -400 -19 0 -24 -5 -24 -25 l0 -26 158 3 c142 3 157 5 157 21 0 10 -15 25
-35 35 -34 17 -35 19 -41 92 -9 102 -9 484 -1 593 8 93 15 107 60 107 18 0 23
5 20 23 -3 22 -6 22 -160 25 l-158 3 0 -26z"/>
<path d="M5002 1054 c-12 -8 -22 -22 -22 -30 0 -8 -4 -13 -9 -9 -6 3 -9 -4 -8
-15 2 -23 24 -26 51 -5 26 20 45 19 101 -6 57 -25 101 -20 136 17 18 20 21 29
13 42 -13 19 -40 23 -37 5 3 -13 -63 -30 -74 -19 -4 3 -15 -2 -26 -11 -11 -10
-17 -12 -13 -5 4 6 4 12 -1 13 -39 3 -61 14 -51 25 4 3 20 -2 37 -11 17 -8 31
-13 31 -11 0 10 -59 36 -82 36 -13 0 -34 -7 -46 -16z m6 -18 c-7 -8 -15 -12
-17 -11 -5 6 10 25 20 25 5 0 4 -6 -3 -14z m169 -22 c-3 -3 -12 -4 -19 -1 -8
3 -5 6 6 6 11 1 17 -2 13 -5z"/>
<path d="M4831 929 c5 -11 16 -19 24 -19 12 0 15 -34 17 -191 3 -179 0 -212
-16 -210 -19 3 -39 -1 -28 -6 6 -2 10 -9 6 -14 -6 -10 -5 -10 81 -11 89 -1 90
-1 75 17 -7 8 -19 15 -26 15 -8 0 -14 6 -14 13 0 6 -2 80 -5 164 -3 83 -1 154
4 157 4 3 23 -13 40 -34 18 -23 37 -37 43 -34 7 4 8 2 4 -5 -4 -6 18 -40 55
-81 49 -55 65 -68 75 -59 9 8 14 8 14 1 0 -6 -6 -12 -12 -15 -10 -3 -10 -7 1
-20 7 -9 18 -14 24 -10 5 3 7 2 4 -4 -3 -5 15 -33 40 -62 36 -42 51 -51 72
-49 l26 3 3 207 2 208 25 16 c40 26 15 44 -59 43 -33 0 -55 -3 -48 -6 6 -2 12
-9 12 -15 0 -6 -8 -4 -18 5 -25 23 -46 22 -33 -1 5 -9 26 -23 46 -31 32 -11
39 -11 47 0 7 11 8 9 4 -4 -3 -10 -6 -24 -6 -30 0 -7 -4 -6 -10 3 -7 11 -10
11 -10 2 0 -7 -5 -10 -10 -7 -6 4 -8 11 -5 16 4 5 1 9 -5 9 -7 0 -10 -36 -9
-110 1 -60 4 -108 8 -105 4 2 6 -6 5 -18 -1 -12 -3 -31 -3 -42 -1 -16 -10 -9
-44 30 -62 72 -90 102 -81 86 5 -9 3 -12 -4 -7 -7 4 -12 13 -12 20 0 23 -41
66 -63 66 -16 0 -18 3 -9 9 10 6 7 13 -15 30 -15 13 -21 19 -13 15 8 -4 -5 14
-30 40 l-44 46 -68 -1 c-63 -1 -67 -3 -57 -20z m79 -1 c0 -14 -18 -17 -28 -5
-8 10 -6 13 9 13 10 0 19 -4 19 -8z m54 -4 c4 -10 1 -14 -6 -12 -15 5 -23 28
-10 28 5 0 13 -7 16 -16z m-24 -24 c0 -5 -4 -10 -10 -10 -5 0 -10 5 -10 10 0
6 5 10 10 10 6 0 10 -4 10 -10z m61 -18 c-6 -2 -9 -7 -6 -12 3 -4 -1 -10 -8
-13 -9 -3 -12 4 -11 22 2 35 2 35 20 20 10 -8 12 -15 5 -17z m-91 4 c0 -8 -7
-17 -16 -20 -13 -5 -14 -4 -6 7 7 8 9 17 5 20 -3 4 -1 7 5 7 7 0 12 -6 12 -14z
m110 -47 c0 -6 7 -8 17 -5 16 6 16 6 0 -12 -9 -10 -14 -22 -10 -27 5 -4 3 -5
-4 -1 -7 4 -9 14 -6 23 5 12 2 15 -10 10 -17 -6 -23 4 -10 16 10 11 23 8 23
-4z m270 -21 c0 -5 -4 -8 -10 -8 -5 0 -10 10 -10 23 0 18 2 19 10 7 5 -8 10
-18 10 -22z m-381 -50 c1 -15 -3 -30 -9 -33 -6 -4 -10 14 -9 47 0 39 3 48 9
33 5 -11 9 -32 9 -47z m210 -27 c0 -14 -1 -14 -6 -1 -10 26 -35 50 -46 43 -6
-4 -7 -1 -2 6 9 16 55 -25 54 -48z m-30 15 c9 -10 8 -15 -3 -19 -9 -4 -18 -1
-22 5 -4 7 -3 8 4 4 7 -4 12 -3 12 3 0 5 -8 12 -17 14 -15 4 -15 5 -2 6 9 0
22 -5 28 -13z m50 -58 c1 10 5 10 17 -2 8 -9 20 -16 25 -16 5 0 9 -8 9 -17 0
-16 -2 -16 -11 -3 -8 11 -12 12 -16 3 -3 -9 -13 -6 -34 9 -23 17 -26 24 -17
36 10 12 13 11 19 -5 4 -10 8 -12 8 -5z m-232 -50 c-2 -13 -4 -3 -4 22 0 25 2
35 4 23 2 -13 2 -33 0 -45z m313 -20 c0 -4 -9 -12 -20 -18 -18 -10 -18 -8 -8
21 8 23 13 27 19 17 5 -7 9 -16 9 -20z m43 -78 c0 -17 3 -27 6 -22 3 5 15 6
26 2 17 -6 16 -7 -8 -12 -18 -4 -32 1 -44 14 -16 18 -16 18 0 12 10 -3 17 -1
17 5 0 6 -6 11 -12 11 -7 0 -14 12 -15 26 -1 24 0 25 15 11 8 -9 15 -30 15
-47z m30 10 c13 -15 14 -20 3 -20 -7 0 -16 9 -19 20 -3 11 -4 20 -3 20 1 0 9
-9 19 -20z m-388 -40 c3 -5 -1 -10 -10 -10 -9 0 -13 5 -10 10 3 6 8 10 10 10
2 0 7 -4 10 -10z"/>
<path d="M5488 943 c6 -2 12 -11 12 -19 0 -8 9 -14 21 -14 13 0 20 -6 18 -17
-1 -10 -1 -71 0 -135 1 -92 4 -118 15 -118 9 0 12 -8 8 -26 -3 -19 -7 -22 -13
-12 -6 8 -9 9 -9 1 0 -6 6 -18 13 -25 6 -8 19 -27 27 -43 23 -45 92 -66 205
-62 101 3 155 23 189 70 19 25 22 47 26 189 5 166 6 168 48 184 1 1 0 8 -3 16
-5 11 -28 15 -103 16 -58 1 -92 -1 -84 -7 8 -4 12 -12 10 -17 -1 -5 7 -10 19
-12 21 -3 22 -7 25 -154 2 -82 0 -152 -4 -155 -5 -2 -8 -9 -8 -14 0 -6 5 -7
10 -4 6 4 10 3 9 -2 -4 -22 2 -34 14 -27 7 4 9 3 4 -2 -5 -5 -13 -10 -18 -10
-5 -1 -14 -2 -20 -3 -5 0 -7 -5 -4 -11 3 -5 1 -10 -5 -10 -7 0 -9 7 -6 16 3 9
6 18 6 20 0 3 5 2 10 -1 6 -3 10 -1 10 4 0 16 -20 13 -26 -3 -8 -20 -81 -48
-133 -50 -24 -1 -38 0 -31 2 8 3 -2 10 -20 16 -54 17 -60 41 -57 216 l2 155
28 13 c23 11 26 16 16 28 -9 10 -37 14 -113 13 -55 0 -95 -3 -88 -6z m67 -14
c11 -17 2 -18 -19 -3 -17 12 -17 14 -4 14 9 0 20 -5 23 -11z m65 0 c13 -9 12
-10 -2 -5 -10 3 -18 1 -18 -4 0 -6 5 -10 11 -10 6 0 3 -8 -7 -17 -14 -14 -16
-32 -12 -115 3 -54 2 -96 -1 -92 -3 3 -8 47 -11 97 -4 80 -7 92 -22 89 -12 -2
-16 2 -12 13 7 17 24 21 24 5 0 -5 5 -10 10 -10 6 0 10 14 10 30 0 32 6 36 30
19z m312 4 c-6 -2 -9 -10 -6 -15 4 -7 2 -8 -5 -4 -13 9 -5 26 12 25 9 0 8 -2
-1 -6z m27 -163 l-6 -115 1 118 c1 64 -2 117 -6 117 -5 0 -9 -10 -9 -22 -1
-15 -3 -17 -6 -7 -2 8 1 29 8 45 l12 29 6 -25 c3 -14 3 -77 0 -140z m-390 -87
c0 -25 -1 -26 -9 -8 -12 27 -12 35 0 35 6 0 10 -12 9 -27z m26 -33 c3 -5 1
-10 -4 -10 -6 0 -11 5 -11 10 0 6 2 10 4 10 3 0 8 -4 11 -10z m375 -38 c0 -7
-5 -10 -12 -6 -8 5 -9 0 -5 -15 3 -14 1 -21 -6 -18 -7 2 -12 12 -12 23 0 10
-4 23 -10 27 -6 5 -3 7 8 3 12 -4 17 0 17 12 0 15 2 15 10 2 5 -8 10 -21 10
-28z m-352 -2 c3 -7 0 -10 -6 -6 -7 4 -14 -4 -18 -20 -5 -20 -9 -23 -15 -12
-12 21 0 56 19 54 9 -2 18 -9 20 -16z m7 -69 c-3 -6 -11 -11 -17 -11 -6 0 -6
6 2 15 14 17 26 13 15 -4z"/>
<path d="M6160 930 c6 -11 17 -20 26 -20 8 0 17 -7 21 -16 5 -13 7 -13 14 -2
7 10 9 9 9 -4 0 -10 -4 -18 -10 -18 -15 0 -13 -317 2 -326 8 -5 10 4 6 32 l-6
39 13 -30 c7 -16 11 -33 8 -37 -2 -5 1 -8 6 -8 6 0 11 20 11 44 0 25 3 47 8
49 5 4 7 -48 3 -106 -1 -4 -9 -4 -18 2 -13 7 -23 5 -37 -7 -18 -16 -19 -16
-12 2 6 19 6 19 -12 3 -10 -9 -27 -17 -38 -18 -18 0 -18 -1 1 -9 11 -5 16 -9
10 -9 -5 -1 -5 -5 2 -9 14 -9 326 -6 363 3 50 13 91 38 105 66 19 35 19 73 2
91 -7 7 -16 21 -19 30 -9 21 -45 41 -52 29 -9 -15 5 -41 22 -41 13 0 12 4 -4
23 l-19 22 23 -19 c12 -11 20 -21 17 -24 -3 -3 1 -12 7 -21 10 -13 10 -14 -2
-3 -8 6 -18 12 -23 12 -4 0 -5 -6 -2 -12 4 -7 -1 -4 -11 7 -13 15 -15 16 -11
3 3 -9 -1 -22 -9 -29 -8 -7 -13 -18 -10 -26 3 -7 1 -13 -5 -13 -6 0 -7 -5 -3
-11 4 -7 12 -5 23 6 12 13 13 19 3 22 -6 3 -10 9 -6 14 8 14 24 11 24 -6 0 -7
8 -19 18 -25 15 -10 15 -11 -3 -7 -11 2 -26 -2 -33 -10 -7 -7 -17 -11 -23 -8
-5 4 -9 1 -9 -4 0 -6 -3 -10 -7 -10 -5 1 -15 1 -23 0 -12 -1 -12 -3 -2 -9 8
-6 1 -9 -20 -9 -98 -3 -161 -2 -167 1 -3 2 -5 43 -3 91 l4 88 82 -5 c88 -6
146 -27 147 -56 0 -14 2 -14 9 3 12 27 12 43 0 25 -7 -11 -8 -5 -5 20 2 19 12
40 21 45 9 6 30 21 45 33 64 52 15 156 -78 167 -13 2 -23 -1 -23 -6 0 -5 -4
-9 -10 -9 -5 0 -9 6 -7 13 3 17 -254 21 -265 4 -6 -9 -8 -9 -8 1 0 7 -14 12
-35 12 -33 0 -35 -2 -25 -20z m120 6 c0 -2 -7 -6 -15 -10 -8 -3 -15 -1 -15 4
0 6 7 10 15 10 8 0 15 -2 15 -4z m324 -45 c3 -5 -1 -14 -9 -21 -19 -16 -19
-39 -1 -46 12 -4 10 -10 -7 -30 -11 -13 -25 -24 -31 -24 -6 0 -4 5 4 10 9 6
11 13 5 18 -12 9 -16 44 -4 36 5 -3 9 2 9 11 0 9 -4 13 -10 10 -5 -3 -10 1
-10 10 0 9 4 14 9 11 5 -3 14 1 21 9 11 13 8 14 -21 9 -32 -6 -33 -6 -14 9 19
15 46 10 59 -12z m-100 -5 c47 -19 55 -62 18 -94 -39 -33 -70 -44 -130 -49
-119 -8 -134 -13 -126 -41 3 -9 -2 -4 -11 11 -9 16 -14 31 -11 35 3 3 6 -1 6
-9 1 -10 4 -9 14 4 9 12 16 14 21 8 9 -15 26 -14 24 2 -1 6 -1 42 0 80 l1 67
80 0 c46 0 95 -6 114 -14z m-232 -68 c2 -21 0 -38 -4 -38 -4 0 -8 21 -7 48 1
52 6 48 11 -10z m338 32 c0 -5 -4 -10 -10 -10 -5 0 -10 5 -10 10 0 6 5 10 10
10 6 0 10 -4 10 -10z m-70 -63 c0 -2 -10 -12 -22 -23 l-23 -19 19 23 c18 21
26 27 26 19z m-285 -17 c3 -5 1 -10 -4 -10 -6 0 -11 5 -11 10 0 6 2 10 4 10 3
0 8 -4 11 -10z m235 -24 c0 -2 -7 -6 -15 -10 -8 -3 -15 -1 -15 4 0 6 7 10 15
10 8 0 15 -2 15 -4z m31 -43 c13 -16 12 -17 -3 -4 -17 13 -22 21 -14 21 2 0
10 -8 17 -17z m-263 -53 c-12 -16 -23 -30 -25 -30 -2 0 3 14 12 30 9 17 20 30
26 30 5 0 0 -13 -13 -30z m362 -50 c0 -5 -7 -10 -16 -10 -8 0 -12 5 -9 10 3 6
10 10 16 10 5 0 9 -4 9 -10z"/>
<path d="M6579 873 c-13 -16 -12 -17 4 -4 9 7 17 15 17 17 0 8 -8 3 -21 -13z"/>
<path d="M6571 814 c0 -11 3 -14 6 -6 3 7 2 16 -1 19 -3 4 -6 -2 -5 -13z"/>
<path d="M6770 930 c13 -25 50 -27 50 -3 0 15 2 14 16 -3 13 -16 15 -16 10 -1
-3 9 -1 17 5 17 6 0 9 -8 7 -17 -2 -10 -11 -17 -21 -17 -15 2 -17 -15 -17
-185 0 -196 -3 -211 -44 -211 -16 0 -17 -3 -8 -9 8 -4 12 -12 10 -16 -2 -7
348 -11 418 -6 6 1 15 28 18 62 6 51 4 63 -10 74 -21 15 -51 9 -51 -11 0 -8 4
-14 9 -14 4 0 8 4 8 10 0 5 7 7 15 4 8 -4 12 -10 9 -15 -3 -5 -10 -6 -16 -3
-6 4 -8 -2 -4 -17 6 -20 5 -21 -4 -6 -6 9 -16 17 -22 17 -6 0 -5 -7 3 -17 10
-11 10 -14 2 -9 -9 5 -13 -1 -14 -21 -1 -22 -3 -23 -6 -7 -4 20 -6 21 -31 9
-33 -17 -42 -18 -119 -16 l-63 1 0 185 0 185 24 16 c46 30 22 42 -85 43 -98 2
-100 1 -89 -19z m104 -47 c-17 -17 -18 -17 -11 0 4 10 7 24 7 30 0 8 3 8 11 0
9 -9 7 -16 -7 -30z m-37 -250 c-1 -43 -3 -8 -3 77 0 85 2 120 3 78 2 -43 2
-113 0 -155z m20 -115 c-3 -8 -6 -5 -6 6 -1 11 2 17 5 13 3 -3 4 -12 1 -19z"/>
<path d="M7310 930 c11 -21 36 -27 42 -10 2 6 2 -83 1 -197 -2 -140 -7 -210
-14 -217 -9 -8 -10 -8 -5 1 4 7 -1 9 -15 6 -16 -4 -17 -8 -7 -14 7 -5 9 -9 3
-9 -5 0 -5 -4 2 -8 6 -4 107 -7 225 -7 l213 1 9 51 c9 55 -4 83 -38 83 -18 0
-31 -18 -21 -28 4 -4 10 -1 12 6 3 6 10 9 15 6 6 -4 -4 -14 -23 -23 -19 -9
-34 -23 -33 -31 1 -9 -9 -16 -26 -17 -15 -1 -31 -3 -36 -4 -5 -1 -42 -1 -81 0
l-73 1 0 90 0 90 65 0 c58 0 69 -3 90 -26 38 -41 60 -29 62 36 2 36 -2 62 -12
74 -17 22 -48 15 -39 -9 4 -9 3 -15 -2 -14 -14 2 -54 -13 -54 -20 0 -3 -25 -4
-55 -3 l-55 4 0 79 0 79 99 0 c117 0 127 -3 147 -42 11 -21 21 -28 37 -26 20
3 22 8 19 48 -2 25 -8 50 -14 57 -6 8 -73 12 -229 13 -218 1 -220 0 -209 -20z
m100 -26 c0 -18 -14 -18 -29 0 -9 11 -9 15 1 19 17 6 28 -1 28 -19z m291 3
c-10 -9 -11 -8 -5 6 3 10 9 15 12 12 3 -3 0 -11 -7 -18z m-282 -78 c-9 -5 -15
-4 -18 2 -2 6 3 15 10 20 9 5 15 4 18 -2 2 -6 -3 -15 -10 -20z m-1 -47 c2 -7
-5 -12 -17 -12 -14 0 -19 5 -14 15 6 17 25 15 31 -3z m220 -43 c11 0 13 -2 4
-6 -10 -4 -10 -8 0 -21 12 -15 11 -16 -4 -3 -15 11 -18 11 -18 0 0 -8 -6 -5
-14 7 -11 14 -12 22 -3 33 8 9 12 10 15 2 2 -6 11 -11 20 -12z m-208 1 c0 -5
-4 -10 -10 -10 -5 0 -10 5 -10 10 0 6 5 10 10 10 6 0 10 -4 10 -10z m-13 -192
c16 -18 8 -23 -19 -13 -10 4 -12 25 -8 88 l5 82 3 -70 c2 -46 8 -75 19 -87z
m300 -5 c4 -10 11 -22 17 -26 7 -5 3 -7 -9 -5 -12 2 -19 11 -18 22 0 11 -4 15
-14 12 -8 -3 -11 -1 -8 4 10 15 25 12 32 -7z"/>
</g>
</svg>
